HIERARCHY
ROOT SpineBase
{
  OFFSET 0.000000 0.000000 0.000000
  CHANNELS 6 Xposition Yposition Zposition Zrotation Xrotation Yrotation
  JOINT SpineMid
  {
    OFFSET -0.000000 27.581104 0.000000
    CHANNELS 3 Zrotation Xrotation Yrotation
    JOINT SpineShoulder
    {
      OFFSET -0.057939 20.561488 -0.720519
      CHANNELS 3 Zrotation Xrotation Yrotation
      JOINT Neck
      {
        OFFSET -0.077705 6.835695 -0.558862
        CHANNELS 3 Zrotation Xrotation Yrotation
        JOINT Head
        {
          OFFSET 5.922580 11.567726 1.677828
          CHANNELS 3 Zrotation Xrotation Yrotation
          End Site
          {
            OFFSET 0 0 0
          }
        }
      }
      JOINT ShoulderLeft
      {
        OFFSET -11.143183 -3.897691 -10.154689
        CHANNELS 3 Zrotation Xrotation Yrotation
        JOINT ElbowLeft
        {
          OFFSET -6.128455 -21.998571 -4.308339
          CHANNELS 3 Zrotation Xrotation Yrotation
          JOINT WristLeft
          {
            OFFSET 4.400315 -23.904656 -2.853373
            CHANNELS 3 Zrotation Xrotation Yrotation
            JOINT HandLeft
            {
              OFFSET 2.091563 -7.717785 0.370136
              CHANNELS 3 Zrotation Xrotation Yrotation
              JOINT HandTipLeft
              {
                OFFSET 2.234322 -6.036111 0.326531
                CHANNELS 3 Zrotation Xrotation Yrotation
                End Site
                {
                  OFFSET 0 0 0
                }
              }
              JOINT ThumbLeft
              {
                OFFSET -3.135136 -1.249690 -0.751639
                CHANNELS 3 Zrotation Xrotation Yrotation
                End Site
                {
                  OFFSET 0 0 0
                }
              }
            }
          }
        }
      }
      JOINT ShoulderRight
      {
        OFFSET 11.706061 -4.930248 8.072456
        CHANNELS 3 Zrotation Xrotation Yrotation
        JOINT ElbowRight
        {
          OFFSET 1.060416 -24.556118 0.736726
          CHANNELS 3 Zrotation Xrotation Yrotation
          JOINT WristRight
          {
            OFFSET 0.714088 -22.467562 -9.866135
            CHANNELS 3 Zrotation Xrotation Yrotation
            JOINT HandRight
            {
              OFFSET 0.536605 -5.691807 -2.550057
              CHANNELS 3 Zrotation Xrotation Yrotation
              JOINT HandTipRight
              {
                OFFSET 0.347576 -3.940824 -6.589401
                CHANNELS 3 Zrotation Xrotation Yrotation
                End Site
                {
                  OFFSET 0 0 0
                }
              }
              JOINT ThumbRight
              {
                OFFSET 1.077450 -0.481054 -1.818245
                CHANNELS 3 Zrotation Xrotation Yrotation
                End Site
                {
                  OFFSET 0 0 0
                }
              }
            }
          }
        }
      }
    }
  }
  JOINT HipLeft
  {
    OFFSET -4.261315 1.293363 -6.985319
    CHANNELS 3 Zrotation Xrotation Yrotation
    JOINT KneeLeft
    {
      OFFSET -11.952257 -29.054850 2.211494
      CHANNELS 3 Zrotation Xrotation Yrotation
      JOINT AnkleLeft
      {
        OFFSET -8.224389 -28.363658 6.879655
        CHANNELS 3 Zrotation Xrotation Yrotation
        JOINT FootLeft
        {
          OFFSET 5.181169 -4.050410 -9.885982
          CHANNELS 3 Zrotation Xrotation Yrotation
          End Site
          {
            OFFSET 0 0 0
          }
        }
      }
    }
  }
  JOINT HipRight
  {
    OFFSET 3.708755 0.448585 0.542809
    CHANNELS 3 Zrotation Xrotation Yrotation
    JOINT KneeRight
    {
      OFFSET -5.630711 -30.831571 7.144075
      CHANNELS 3 Zrotation Xrotation Yrotation
      JOINT AnkleRight
      {
        OFFSET -9.398388 -26.001172 9.874773
        CHANNELS 3 Zrotation Xrotation Yrotation
        JOINT FootRight
        {
          OFFSET 5.447154 -3.818292 -10.682197
          CHANNELS 3 Zrotation Xrotation Yrotation
          End Site
          {
            OFFSET 0 0 0
          }
        }
      }
    }
  }
}
MOTION
Frames: 6
Frame Time: 0.033333
25.497001 62.979936 359.344013 -3.158732 0.791306 -39.517321 0.638761 0.533287 39.462730 -0.149255 0.382258 -0.102648 4.498992 -0.023548 -0.647903 0.000000 0.000000 0.000000 2.479298 -1.170429 0.214521 1.596428 1.000627 -0.020240 5.993692 5.914801 1.878807 -10.512629 6.052634 1.870917 0.000000 0.000000 0.000000 0.000000 0.000000 0.000000 50.011518 6.388750 -0.244513 20.597623 21.130016 -40.953446 -5.634793 34.358744 -11.580492 -24.367414 -45.522584 -21.723533 0.000000 0.000000 0.000000 0.000000 0.000000 0.000000 6.207133 4.295759 39.609301 -3.174716 -0.085647 -0.001843 -2.297986 0.891209 3.641045 0.000000 0.000000 0.000000 6.532409 4.121433 40.412851 -3.847561 0.828814 -1.046119 -2.665644 -2.022446 3.756699 0.000000 0.000000 0.000000
25.423455 63.145229 359.305686 -3.238533 0.874753 -38.864834 0.585039 0.464786 38.807857 -0.148852 0.368531 -0.109721 5.258307 -0.153563 -0.672483 0.000000 0.000000 0.000000 2.644081 -1.228874 0.230338 1.729294 1.469371 0.041704 5.264860 5.410585 1.850778 -8.415447 8.512506 2.994327 0.000000 0.000000 0.000000 0.000000 0.000000 0.000000 55.090390 9.796940 -1.802211 17.414356 21.278010 -41.647179 -11.171462 23.425510 -6.086972 -15.332600 -38.067699 -19.753430 0.000000 0.000000 0.000000 0.000000 0.000000 0.000000 6.403528 4.637656 38.839682 -3.414906 -0.343396 0.094683 -2.610785 1.057336 4.552407 0.000000 0.000000 0.000000 6.852471 4.121359 39.803207 -3.921554 0.769724 -1.018277 -2.983990 -1.723771 4.603060 0.000000 0.000000 0.000000
25.433888 63.263091 359.292767 -3.181214 0.912266 -38.208715 0.485071 0.399790 38.150867 -0.134219 0.348324 -0.111426 5.717466 -0.377380 -0.619846 0.000000 0.000000 0.000000 2.691099 -1.265170 0.235116 1.789179 1.945320 0.113607 3.931923 4.932839 1.798556 -5.577420 12.588711 4.745897 0.000000 0.000000 0.000000 0.000000 0.000000 0.000000 56.235054 9.762526 -1.822077 19.116412 23.868757 -44.673834 -11.177071 16.304171 -3.864210 -18.945107 -36.104092 -19.866192 0.000000 0.000000 0.000000 0.000000 0.000000 0.000000 6.470270 4.773984 38.116223 -3.635123 -0.457136 0.124607 -2.828948 1.172700 5.408095 0.000000 0.000000 0.000000 6.849233 4.002645 39.149417 -3.761866 0.588307 -0.900224 -3.338751 -1.397475 5.337453 0.000000 0.000000 0.000000
25.468024 63.341379 359.280514 -3.084521 0.943486 -37.551208 0.401605 0.353658 37.494069 -0.075768 0.312740 -0.107059 6.072700 -0.676214 -0.525665 0.000000 0.000000 0.000000 3.219166 -0.647271 -0.052645 1.079285 1.714739 0.502937 2.665404 4.221697 1.641786 -4.409496 15.776769 6.123155 0.000000 0.000000 0.000000 0.000000 0.000000 0.000000 56.180778 9.343869 -1.627048 19.731462 27.722646 -46.904859 -6.066000 13.855245 -2.865129 -24.027325 -41.728800 -20.711679 0.000000 0.000000 0.000000 0.000000 0.000000 0.000000 6.312239 5.090035 37.278453 -3.951534 -1.073272 0.297088 -2.898160 1.480902 6.166130 0.000000 0.000000 0.000000 6.746117 3.867357 38.479773 -3.547816 0.367414 -0.762365 -3.683821 -1.091993 5.996031 0.000000 0.000000 0.000000
25.532012 63.364274 359.280371 -2.953062 0.977685 -37.119994 0.320029 0.333062 37.065450 -0.027917 0.294641 -0.100516 6.357864 -1.188404 -0.327781 0.000000 0.000000 0.000000 3.177822 -0.755572 -0.056097 0.989971 1.902612 0.524098 0.702524 2.964620 1.280111 -4.241286 18.723465 7.564272 0.000000 0.000000 0.000000 0.000000 0.000000 0.000000 56.752254 10.267799 -2.068371 16.159311 28.800704 -45.244091 -2.828722 16.950749 -3.588067 -24.953824 -46.084482 -21.137277 0.000000 0.000000 0.000000 0.000000 0.000000 0.000000 5.958093 5.252554 36.677665 -3.984097 -1.684457 0.497105 -2.900647 1.716572 6.473621 0.000000 0.000000 0.000000 6.539792 3.749541 38.021114 -3.239160 0.046646 -0.566180 -3.981600 -0.820072 6.187090 0.000000 0.000000 0.000000
25.616129 63.357201 359.300270 -2.767539 0.984201 -36.807266 0.264620 0.324342 36.756502 0.026508 0.281464 -0.089817 6.300728 -1.786764 -0.040930 0.000000 0.000000 0.000000 2.338654 -1.359605 0.203279 1.353670 2.587687 0.282875 -0.888835 1.476094 0.783354 -3.191184 21.363082 8.836756 0.000000 0.000000 0.000000 0.000000 0.000000 0.000000 54.859985 10.027487 -1.866374 16.783401 29.742290 -44.800456 -9.531303 16.360287 -3.004162 -15.480342 -43.889110 -18.265570 0.000000 0.000000 0.000000 0.000000 0.000000 0.000000 5.608266 5.232393 36.273314 -3.693028 -2.154873 0.717711 -3.072473 1.961925 6.396528 0.000000 0.000000 0.000000 6.228865 3.647752 37.670046 -2.903934 -0.256604 -0.374352 -4.207672 -0.655860 6.085840 0.000000 0.000000 0.000000
